<svg xmlns="http://www.w3.org/2000/svg" width="560" height="560" fill="none"><path fill="#000" fill-rule="evenodd" d="M280 560c154.64 0 280-125.36 280-280S434.64 0 280 0 0 125.36 0 280s125.36 280 280 280zm0-46.667c128.864 0 233.333-104.469 233.333-233.333S408.864 46.667 280 46.667 46.667 151.136 46.667 280 151.136 513.333 280 513.333z" clip-rule="evenodd"/><path fill="#000" fill-opacity=".2" fill-rule="evenodd" d="M280 560c154.64 0 280-125.36 280-280S434.64 0 280 0 0 125.36 0 280s125.36 280 280 280zm0-46.667c128.864 0 233.333-104.469 233.333-233.333S408.864 46.667 280 46.667 46.667 151.136 46.667 280 151.136 513.333 280 513.333z" clip-rule="evenodd"/><path fill="#000" d="M285.641 434.4c-83.6 0-147.84-58.08-147.84-154s64.24-154 147.84-154c68.2 0 128.04 40.48 136.84 118.8h-73.04c-7.04-38.28-34.32-53.68-64.68-53.68-44.44 0-73.92 33-73.92 84.48v8.8c0 51.48 29.48 84.48 73.92 84.48 30.36 0 57.64-15.4 64.68-53.68h73.04c-8.8 78.32-68.64 118.8-136.84 118.8z"/></svg>