<svg xmlns="http://www.w3.org/2000/svg" width="51" height="14" fill="none"><g clip-path="url(#a)"><path fill="#000" d="M3.465 13c.276 0 .414-.102.414-.306v-.054c0-.12-.081-.243-.243-.369a2.218 2.218 0 0 1-.423-.432c-.12-.162-.138-.351-.054-.567l.522-1.44h5.022l.54 1.44c.084.216.066.405-.054.567-.12.162-.261.306-.423.432-.162.126-.243.249-.243.369v.054c0 .204.132.306.396.306h3.942c.264 0 .396-.102.396-.306v-.054c0-.144-.135-.336-.405-.576a2.192 2.192 0 0 1-.585-.792L7.965.994C7.737.478 7.37.22 6.867.22H4.995c-.24 0-.36.096-.36.288V.58c0 .072.129.276.387.612.258.336.339.63.243.882l-3.582 9.198c-.12.3-.312.567-.576.801-.264.234-.396.423-.396.567v.054c0 .204.132.306.396.306h2.358zM8.27 8.662H4.113l2.052-5.598L8.27 8.662zM22.707 13c.3 0 .486-.174.558-.522l.468-2.52c.06-.264-.042-.396-.306-.396h-.216c-.168 0-.34.123-.513.369-.174.246-.33.513-.468.801a2.827 2.827 0 0 1-.585.801c-.252.246-.528.369-.828.369h-2.592c-.252 0-.441-.096-.567-.288-.126-.192-.19-.432-.19-.72V1.948c0-.288.13-.555.388-.801s.387-.435.387-.567V.508c0-.192-.144-.288-.432-.288h-3.384c-.264 0-.396.096-.396.288V.58c0 .132.114.321.342.567.228.246.342.513.342.801v9.324c0 .276-.114.543-.342.801-.228.258-.342.447-.342.567v.054c0 .204.132.306.396.306h8.28zm7.416 0c2.064 0 3.735-.582 5.013-1.746 1.278-1.164 1.917-2.706 1.917-4.626 0-1.872-.708-3.408-2.124-4.608-1.416-1.2-3.3-1.8-5.652-1.8h-4.104c-.276 0-.414.096-.414.288V.58c0 .12.117.309.351.567.234.258.35.525.35.801v9.324c0 .276-.116.543-.35.801-.234.258-.351.447-.351.567v.054c0 .204.138.306.414.306h4.95zm.27-1.098h-.918c-.42 0-.747-.135-.981-.405-.234-.27-.351-.651-.351-1.143v-8.28c0-.504.24-.756.72-.756h.342c1.416 0 2.607.63 3.573 1.89.966 1.26 1.449 2.784 1.449 4.572 0 1.284-.357 2.292-1.071 3.024-.714.732-1.635 1.098-2.763 1.098zm14.13 1.278c1.776 0 3.26-.612 4.455-1.836 1.194-1.224 1.791-2.778 1.791-4.662 0-1.872-.6-3.447-1.8-4.725-1.2-1.278-2.7-1.917-4.5-1.917-1.872 0-3.393.615-4.563 1.845S38.15 4.702 38.15 6.646c0 1.836.612 3.384 1.836 4.644 1.224 1.26 2.736 1.89 4.536 1.89zm.756-1.17c-.816 0-1.572-.369-2.268-1.107-.696-.738-1.239-1.683-1.629-2.835a11.04 11.04 0 0 1-.585-3.564c0-.996.243-1.794.729-2.394.486-.6 1.143-.9 1.97-.9.817 0 1.579.384 2.287 1.152.708.768 1.26 1.731 1.656 2.889.396 1.158.594 2.325.594 3.501 0 .948-.252 1.728-.756 2.34-.504.612-1.17.918-1.998.918z"/></g><defs><clipPath id="a"><path fill="#fff" d="M0 0h51v14H0z"/></clipPath></defs></svg>