<svg xmlns="http://www.w3.org/2000/svg" width="318" height="68" fill="none"><path fill="#000" d="M33.37 67.35c17.73 0 31.32-11.7 33.48-28.98h-18c-1.44 8.19-7.47 13.77-15.3 13.77-9.54 0-15.57-7.47-15.57-18.54 0-10.98 6.03-18.36 15.57-18.36 7.92 0 13.95 5.58 15.3 13.68h18C64.78 11.82 51.1.03 33.37.03 15.01.03.52 14.7.52 33.6c0 18.99 14.49 33.75 32.85 33.75zM119.857 66V50.61h-27.18V1.38h-17.01V66h44.19zm51.104 0h18.36l-23.67-64.62h-18.63L123.081 66h17.19l4.05-11.97h22.68l3.96 11.97zm-15.12-45.9 6.75 20.52h-13.68l6.93-20.52zM213.175 66V44.49h5.58L231.985 66h20.25l-15.84-24.21c8.73-3.69 13.68-10.53 13.68-18.81 0-13.77-9.99-21.6-27.45-21.6h-26.46V66h17.01zm0-50.58h8.73c7.56 0 11.07 2.43 11.07 7.56 0 5.13-3.51 7.47-11.07 7.47h-8.73V15.42zM276.896 66V36.84L296.336 66h20.7l-23.4-34.29 22.77-30.33h-19.35l-20.16 27.18V1.38h-17.01V66h17.01z"/></svg>