<svg xmlns="http://www.w3.org/2000/svg" width="42" height="24" fill="none"><g fill="#000" clip-path="url(#a)"><path d="M3.906 18.997a.28.28 0 0 0 .28-.256l.673-7.72.673 7.72a.28.28 0 0 0 .28.256h1.764a.28.28 0 0 0 .279-.256L9.026 5.3a.28.28 0 0 0-.278-.304h-.795a.28.28 0 0 0-.28.256L6.6 17.563c-.001.02-.03.02-.032 0L5.493 5.253a.28.28 0 0 0-.279-.256h-.71a.28.28 0 0 0-.28.256L3.15 17.573c-.002.02-.03.02-.032 0L2.042 5.253a.28.28 0 0 0-.279-.256H.972a.28.28 0 0 0-.28.304l1.173 13.44a.28.28 0 0 0 .28.256h1.76zm9.8 0a.28.28 0 0 0 .28-.28v-.608a.28.28 0 0 0-.28-.28h-.917a.28.28 0 0 1-.28-.28v-4.691a.28.28 0 0 1 .28-.28h.917a.28.28 0 0 0 .28-.28v-.608a.28.28 0 0 0-.28-.28h-.917a.28.28 0 0 1-.28-.28V6.445a.28.28 0 0 1 .28-.28h.917a.28.28 0 0 0 .28-.28v-.609a.28.28 0 0 0-.28-.28h-2.394a.28.28 0 0 0-.28.28v13.44c0 .154.125.28.28.28h2.394zm3.483 0a.28.28 0 0 0 .28-.28v-5.86a.28.28 0 0 1 .28-.28h.477a.72.72 0 0 1 .72.721v5.419c0 .154.127.28.281.28h.917a.28.28 0 0 0 .28-.28V13.41c0-.554-.225-1.055-.59-1.418.364-.362.59-.863.59-1.417V6.999a2.002 2.002 0 0 0-2.002-2.002h-2.15a.28.28 0 0 0-.28.28v13.44c0 .154.125.28.28.28h.917zm1.037-7.588h-.477a.28.28 0 0 1-.28-.28V6.446a.28.28 0 0 1 .28-.28h.477a.72.72 0 0 1 .72.72v3.803a.72.72 0 0 1-.72.72zm6.636 7.588a2.002 2.002 0 0 0 2.002-2.002V7a2.002 2.002 0 0 0-2.002-2.002h-2.15a.28.28 0 0 0-.28.28v13.44c0 .154.125.28.28.28h2.15zm-.196-1.168h-.477a.28.28 0 0 1-.28-.28V6.446a.28.28 0 0 1 .28-.28h.477a.72.72 0 0 1 .72.72v10.222a.72.72 0 0 1-.72.72zm6.636 1.168a2.002 2.002 0 0 0 2.002-2.002V5.277a.28.28 0 0 0-.28-.28h-.917a.28.28 0 0 0-.28.28v11.831a.72.72 0 0 1-.72.72h-.038a.72.72 0 0 1-.72-.72V5.278a.28.28 0 0 0-.28-.28h-.917a.28.28 0 0 0-.28.28v11.717a2 2 0 0 0 2.001 2.002h.43zm5.018.001a.28.28 0 0 0 .28-.28v-8.226l.997 7.096a.28.28 0 0 0 .278.24h.86a.28.28 0 0 0 .278-.24l1.005-7.153v8.282c0 .154.126.28.28.28h.721a.28.28 0 0 0 .28-.28V5.278a.28.28 0 0 0-.28-.28h-.92a.28.28 0 0 0-.278.24l-1.467 10.438c-.008.055-.087.055-.095 0L36.793 5.239a.282.282 0 0 0-.278-.241h-.923a.28.28 0 0 0-.28.28v13.44c0 .154.125.28.28.28h.728zM42 0v1H0V0h42zm0 23v1H0v-1h42z"/></g><defs><clipPath id="a"><path fill="#fff" d="M0 0h42v24H0z"/></clipPath></defs></svg>