<svg xmlns="http://www.w3.org/2000/svg" width="195" height="53" fill="none"><g clip-path="url(#a)"><path fill="#000" d="M43.157 0c6.484 0 11.74 5.273 11.74 11.778 0 3.978-1.966 7.495-4.976 9.628.565 2.092.867 4.294.867 6.566C50.788 41.795 39.619 53 25.842 53 12.065 53 .896 41.795.896 27.972c0-13.822 11.169-25.028 24.946-25.028 2.88 0 5.645.49 8.218 1.39A11.698 11.698 0 0 1 43.157 0zM25.842 7.858c-11.072 0-20.048 9.005-20.048 20.114 0 11.11 8.976 20.115 20.048 20.115 11.072 0 20.049-9.006 20.049-20.115 0-1.591-.185-3.139-.533-4.624-.713.137-1.448.208-2.2.208-6.484 0-11.74-5.274-11.74-11.778 0-1.042.135-2.052.388-3.015a19.962 19.962 0 0 0-5.964-.905zM85.151 10c3.35 0 6.247.727 8.693 2.182 2.446 1.454 4.321 3.504 5.627 6.148 1.305 2.644 1.958 5.701 1.958 9.17 0 3.469-.653 6.526-1.959 9.17-1.305 2.644-3.18 4.694-5.626 6.148C91.398 44.273 88.501 45 85.151 45c-3.334 0-6.224-.727-8.67-2.182-2.446-1.454-4.321-3.504-5.626-6.148-1.306-2.644-1.959-5.701-1.959-9.17 0-3.469.653-6.526 1.959-9.17 1.305-2.644 3.18-4.694 5.626-6.148C78.927 10.727 81.817 10 85.151 10zm98.823 8.4c1.966 0 3.719.303 5.261.91 1.541.607 2.787 1.474 3.739 2.602.951 1.127 1.529 2.438 1.734 3.931l-5.804 1.027-.042-.244a3.668 3.668 0 0 0-1.456-2.3c-.841-.622-1.954-.972-3.338-1.05-1.337-.062-2.414.145-3.232.619-.818.474-1.227 1.132-1.227 1.972 0 .513.17.933.508 1.26.338.326.987.657 1.946.991.959.335 2.461.759 4.506 1.272 2.06.529 3.692 1.12 4.895 1.773 1.203.654 2.076 1.435 2.619 2.345.542.91.813 2.026.813 3.349 0 1.68-.42 3.13-1.262 4.351-.841 1.221-2.052 2.159-3.633 2.812-1.58.653-3.456.98-5.626.98-3.146 0-5.701-.7-7.667-2.1-1.966-1.4-3.161-3.368-3.586-5.903l5.803-.887.067.266a4.665 4.665 0 0 0 1.903 2.686c1.03.707 2.324 1.061 3.881 1.061 1.352 0 2.406-.268 3.161-.805.755-.536 1.132-1.271 1.132-2.205 0-.606-.145-1.073-.436-1.4-.291-.326-.869-.65-1.734-.968-.865-.319-2.304-.743-4.317-1.272-2.155-.56-3.857-1.162-5.108-1.808-1.25-.646-2.15-1.408-2.701-2.287-.55-.879-.825-1.956-.825-3.231 0-1.556.412-2.917 1.238-4.084.826-1.166 1.998-2.069 3.515-2.706 1.518-.638 3.275-.957 5.273-.957zm-73.982-7.7v11.2l.245-.275a9.778 9.778 0 0 1 3.294-2.327c1.4-.614 2.996-.921 4.789-.921 2.846 0 5.009.711 6.487 2.135 1.479 1.423 2.438 3.006 2.878 4.748.441 1.742.661 3.399.661 4.97V44.3h-5.756V32.167l-.003-.337c-.077-5.438-2.058-8.157-5.942-8.157-1.714 0-3.138.58-4.27 1.739-1.133 1.159-1.699 3.138-1.699 5.938V44.3h-5.756V10.7h5.072zm50.863 7.77c1.84 0 3.416.377 4.73 1.132a7.355 7.355 0 0 1 2.984 3.173c.676 1.361 1.014 2.96 1.014 4.795V44.3h-5.685V28.993l-.005-.316c-.051-1.561-.482-2.802-1.293-3.72-.865-.98-2.036-1.47-3.515-1.47-.912 0-1.734.21-2.465.63-.731.42-1.305 1.03-1.722 1.831-.417.801-.625 1.746-.625 2.835V44.3h-5.662V29.063l-.005-.322c-.051-1.589-.482-2.847-1.293-3.773-.865-.987-2.044-1.481-3.538-1.481-.96 0-1.801.221-2.525.665-.723.443-1.281 1.065-1.675 1.866-.393.801-.589 1.723-.589 2.765V44.3h-5.733V19.1h5.025v2.73l.237-.283a8.745 8.745 0 0 1 2.959-2.19c1.282-.591 2.678-.887 4.188-.887 1.746 0 3.248.354 4.506 1.062a7.427 7.427 0 0 1 2.925 2.951c.786-1.26 1.864-2.244 3.232-2.951 1.368-.708 2.878-1.062 4.53-1.062zm-75.846-3.173c-2.217 0-4.081.51-5.59 1.528-1.51 1.019-2.64 2.446-3.386 4.282-.747 1.835-1.12 3.99-1.12 6.463s.389 4.62 1.167 6.44c.779 1.82 1.942 3.224 3.491 4.212 1.55.987 3.457 1.481 5.721 1.481 2.202 0 4.062-.501 5.58-1.505 1.517-1.003 2.654-2.422 3.409-4.258.754-1.836 1.132-3.982 1.132-6.44 0-2.489-.39-4.647-1.168-6.475-.778-1.828-1.946-3.24-3.503-4.235-1.557-.996-3.468-1.493-5.733-1.493z"/></g><defs><clipPath id="a"><path fill="#fff" d="M0 0h195v53H0z"/></clipPath></defs></svg>