<svg xmlns="http://www.w3.org/2000/svg" width="174" height="72" fill="none"><g clip-path="url(#a)"><path fill="#000" d="M69.504 41c-.09.66-.2 1.318-.336 1.968-6.6 5.942-13.154 12.182-19.41 17.808-4.414 4-8.684 7.711-12.746 11.062a34.96 34.96 0 0 1-2.719.156l-.69.006h-.1c5.087-3.892 10.553-8.389 16.256-13.419C56.123 53.037 62.769 46.87 69.504 41zm0-6v1.633c-6.7 5.81-13.366 11.976-19.71 17.482C42.274 60.72 35.163 66.413 28.828 71a34.153 34.153 0 0 1-3.324-.642 245.018 245.018 0 0 0 24.254-18.402C56.138 46.6 62.768 40.64 69.504 35zm-2 13a33.274 33.274 0 0 1-1.114 2.83c-5.593 5.532-11.125 11.202-16.427 16.375a86.422 86.422 0 0 1-2.465 2.398A34.982 34.982 0 0 1 43.504 71a338.99 338.99 0 0 0 6.468-6.046c5.656-5.32 11.55-11.23 17.532-16.954zm1.791-18c.082.48.154.977.209 1.466-6.77 5.474-13.495 11.294-19.847 16.483a254.457 254.457 0 0 1-24.802 18.305c-1.47.969-2.895 1.857-4.256 2.746-1.062-.427-2.088-.835-3.095-1.315 2.278-1.404 4.746-2.835 7.36-4.443a225.67 225.67 0 0 0 24.793-17.443C55.982 40.841 62.597 35.26 69.295 30zm-.18-4c.136.478.271.92.389 1.381-6.441 5.145-12.791 10.535-18.88 15.346a231.245 231.245 0 0 1-24.66 17.566c-4.043 2.492-7.68 4.559-10.855 6.707a35.763 35.763 0 0 1-2.605-1.805c3.727-2.645 8.277-4.938 13.424-7.935a208.449 208.449 0 0 0 24.706-16.754c5.961-4.577 12.149-9.65 18.48-14.506zm-2.161-4c.186.393.372.85.55 1.287-5.822 4.524-11.564 9.218-17.075 13.41a206.703 206.703 0 0 1-24.184 16.469C19.97 56.822 14.61 59.424 10.554 63a21.891 21.891 0 0 1-1.662-1.618l-.388-.43.488-.491c4.189-4.014 10.126-6.482 17.226-10.353a186.1 186.1 0 0 0 24.21-15.592c5.343-3.924 10.89-8.305 16.526-12.516zm-3.179-4c.243.403.495.814.729 1.235-5.192 3.83-10.33 7.731-15.297 11.31a192.9 192.9 0 0 1-24.539 15.471C17.47 49.864 11.45 52.334 7.211 56.387A19.04 19.04 0 0 0 4.953 59c-.55-.626-.99-1.27-1.45-1.933a16.634 16.634 0 0 1 3.735-4.635c4.23-3.695 10.24-5.825 17.44-9.404A173.457 173.457 0 0 0 49.18 28.38c4.697-3.222 9.619-6.845 14.595-10.38zm95.456 10.408c7.992 0 13.932 5.4 14.742 13.5h-9.828c-.162-3.186-2.052-5.184-4.86-5.184-3.24 0-5.13 2.484-5.13 6.75 0 4.374 1.836 6.804 5.13 6.804 2.862 0 4.644-1.944 4.86-5.238h9.828c-.81 8.316-6.48 13.5-14.742 13.5-8.64 0-14.634-6.21-14.634-15.066 0-8.64 6.264-15.066 14.634-15.066zM92.379 46.444c3.456 0 5.832 2.43 5.832 5.94 0 3.456-2.376 5.886-5.832 5.886s-5.886-2.43-5.886-5.886c0-3.51 2.43-5.94 5.886-5.94zm18.036-17.496V58h-9.234V28.948h9.234zm21.816-.54c5.724 0 9.774 3.834 9.774 10.908V58h-9.234V42.394c0-3.672-1.296-5.67-4.104-5.67-2.268 0-4.32 1.62-4.32 5.994V58h-9.234V28.948h8.478v3.51c2.268-2.538 4.968-4.05 8.64-4.05zM61.612 13c.298.386.595.778.892 1.175-4.315 3.063-8.568 6.144-12.687 8.957a176.216 176.216 0 0 1-24.338 14.45C18.355 41.1 12.373 43.254 8.2 46.957A17.192 17.192 0 0 0 3.395 54a37.385 37.385 0 0 1-.891-1.558 16.459 16.459 0 0 1 5.724-9.456c4.19-3.347 10.136-5.181 17.269-8.404a157.76 157.76 0 0 0 24.338-13.569c3.834-2.546 7.774-5.28 11.777-8.013zm-6.589-7c.509.354 1 .727 1.48 1.109a303.633 303.633 0 0 1-5.833 3.725A148.77 148.77 0 0 1 26.382 23.63c-7.118 2.944-13.067 4.507-17.25 7.624-2.27 1.672-4.024 3.928-5.156 7.164a14.177 14.177 0 0 1 3.267-3.292c4.28-3.074 10.335-4.652 17.62-7.635A149.536 149.536 0 0 0 49.678 14.52 449.062 449.062 0 0 0 58.33 9c.4.374.792.766 1.175 1.159-3.333 2.262-6.611 4.496-9.826 6.576a166.001 166.001 0 0 1-24.824 13.856c-7.276 3.275-13.359 5.163-17.639 8.63-1.896 1.508-3.438 3.422-4.565 5.958-.08.99-.128 2.037-.142 3.148l-.004.627v-3.437C1.794 47.2 1.262 49.15.922 51.424L.84 52l-.337-.684c.137-4.474.872-7.887 2.11-10.543.52-7.203 2.838-11.147 6.535-13.573 4.183-2.744 10.106-3.98 17.242-6.633A134.53 134.53 0 0 0 50.67 8.599c1.432-.83 2.883-1.696 4.352-2.599zm-5.525-3c.455.22.903.447 1.346.682l.66.36-1.074.639a136.364 136.364 0 0 1-24.145 11.873c-7.075 2.64-12.987 3.919-17.15 6.686C4.972 26.007 2.566 30.766 2.504 40c0-1.745 0-3.498.044-5.243.054-8.804 2.45-13.161 6.614-15.59 4.163-2.43 10.048-3.353 17.15-5.69A121.879 121.879 0 0 0 49.498 3zm-8.286-2c1.118.235 2.21.525 3.292.86a120.608 120.608 0 0 1-19.46 7.952c-7.309 2.289-13.416 3.23-17.708 5.645C3.12 17.83.648 22.078.509 30.535l-.004.367.026-5.059a26.91 26.91 0 0 1 .817-6.876 36.918 36.918 0 0 1 5.144-7.083c.283-.165.574-.316.871-.453 4.292-2.08 10.354-2.669 17.69-4.668A103.032 103.032 0 0 0 41.212 1zm64.505 15.906c3.51 0 5.94 2.214 5.94 5.292 0 3.024-2.43 5.238-5.94 5.238-3.51 0-5.94-2.214-5.94-5.238 0-3.078 2.43-5.292 5.94-5.292zM33.504 0a77.807 77.807 0 0 1-7.708 2.619c-3.376 1.017-6.5 1.7-9.292 2.381 5.2-3.192 11.043-4.91 17-5z"/></g><defs><clipPath id="a"><path fill="#fff" d="M0 0h174v72H0z"/></clipPath></defs></svg>