<svg xmlns="http://www.w3.org/2000/svg" width="41" height="22" fill="none"><path fill="#000" d="M9.441 6.121c.271 0 .513-.011.727-.033a4.63 4.63 0 0 0 .588-.096c.178-.041.344-.094.498-.156a4.82 4.82 0 0 0 .457-.215V3.344H9.859v.308h.98V5.47a1.63 1.63 0 0 1-.491.263 1.92 1.92 0 0 1-.614.092 2.32 2.32 0 0 1-.879-.166 2.08 2.08 0 0 1-.712-.474 2.218 2.218 0 0 1-.477-.748 2.662 2.662 0 0 1-.174-.987c0-.362.054-.69.16-.982.107-.293.256-.543.448-.75a1.94 1.94 0 0 1 .683-.477c.265-.11.553-.166.865-.166.347 0 .653.097.92.291.267.194.51.5.729.92l.375-.25a3.188 3.188 0 0 0-.383-.502 2.605 2.605 0 0 0-1.146-.719 2.492 2.492 0 0 0-.76-.11c-.287 0-.557.033-.813.1-.255.068-.49.163-.707.286a2.77 2.77 0 0 0-1.02.998 2.72 2.72 0 0 0-.37 1.361c0 .242.034.477.101.705a2.592 2.592 0 0 0 .739 1.18c.177.163.375.303.595.42.22.117.46.208.717.271.258.064.53.096.816.096zM16.883 6v-.336h-2.73v-2.32h1.828v-.336h-1.828V1.156h2.73V.82h-3.601V6h3.601zm3.89.121a2.981 2.981 0 0 0 1.456-.375 2.804 2.804 0 0 0 1.02-.984 2.653 2.653 0 0 0 .384-1.38 2.556 2.556 0 0 0-.384-1.355 2.753 2.753 0 0 0-1.02-.959 3.008 3.008 0 0 0-1.455-.365 3.047 3.047 0 0 0-1.453.365 2.82 2.82 0 0 0-.576.418 2.573 2.573 0 0 0-.826 1.896c0 .378.073.733.22 1.065.147.332.35.623.606.871.256.25.558.445.906.588.348.143.722.215 1.123.215zm0-.258a1.64 1.64 0 0 1-.794-.185 1.663 1.663 0 0 1-.574-.518 2.405 2.405 0 0 1-.35-.785 3.954 3.954 0 0 1-.117-.992c0-.357.039-.684.117-.98.078-.298.195-.553.35-.768.155-.215.346-.382.574-.5a1.7 1.7 0 0 1 .795-.178c.297 0 .56.06.787.178.228.118.42.285.576.5.156.215.274.47.354.767.08.297.119.624.119.98 0 .36-.04.69-.12.993a2.403 2.403 0 0 1-.353.785 1.682 1.682 0 0 1-.576.518 1.63 1.63 0 0 1-.787.185zM25.92 6V3.566h.61L28.328 6h1.012l-1.887-2.512c.187-.047.36-.111.515-.193.157-.082.29-.18.4-.293.111-.113.198-.24.259-.38a1.234 1.234 0 0 0-.027-.994 1.178 1.178 0 0 0-.354-.429 1.727 1.727 0 0 0-.586-.28 3.007 3.007 0 0 0-.817-.099h-1.796V6h.87zm.504-2.695h-.504v-2.16h.765c.16 0 .306.026.44.078.134.052.25.124.347.216a.95.95 0 0 1 .227.334c.053.13.08.274.08.43 0 .17-.034.322-.101.457a1.02 1.02 0 0 1-.284.346 1.34 1.34 0 0 1-.43.22 1.793 1.793 0 0 1-.54.079zm6.605 2.816c.271 0 .513-.011.727-.033a4.66 4.66 0 0 0 .588-.096c.178-.041.344-.094.498-.156.153-.063.306-.134.457-.215V3.344h-1.852v.308h.98V5.47c-.145.114-.31.202-.492.263a1.92 1.92 0 0 1-.613.092 2.32 2.32 0 0 1-.879-.166 2.08 2.08 0 0 1-.712-.474 2.217 2.217 0 0 1-.477-.748 2.662 2.662 0 0 1-.174-.987c0-.362.053-.69.16-.982.107-.293.256-.543.447-.75a1.94 1.94 0 0 1 .684-.477 2.23 2.23 0 0 1 .865-.166c.347 0 .653.097.92.291.267.194.51.5.729.92l.375-.25a3.182 3.182 0 0 0-.383-.502 2.602 2.602 0 0 0-1.147-.72 2.492 2.492 0 0 0-.76-.11c-.287 0-.558.033-.813.1-.255.068-.49.163-.707.286a2.77 2.77 0 0 0-1.02.998 2.72 2.72 0 0 0-.37 1.361c0 .242.033.477.101.705a2.592 2.592 0 0 0 .738 1.18c.177.163.376.303.596.42.22.117.46.208.717.271.258.064.53.096.816.096zM40.47 6v-.336h-2.73v-2.32h1.828v-.336H37.74V1.156h2.73V.82h-3.602V6h3.602zM8.336 13.121c.307 0 .577-.039.809-.117a1.73 1.73 0 0 0 .582-.319 1.29 1.29 0 0 0 .351-.472c.078-.181.117-.374.117-.58a.985.985 0 0 0-.125-.494 1.614 1.614 0 0 0-.332-.407 2.976 2.976 0 0 0-.47-.341 12.763 12.763 0 0 0-.538-.301l-.537-.285a4.019 4.019 0 0 1-.47-.291 1.504 1.504 0 0 1-.332-.32.616.616 0 0 1-.125-.374.701.701 0 0 1 .244-.533.94.94 0 0 1 .306-.18 1.23 1.23 0 0 1 .43-.068c.185 0 .351.025.498.076.147.051.277.123.389.217.112.094.208.206.289.338.08.131.147.277.2.435l.444-.203a1.97 1.97 0 0 0-.246-.515 1.452 1.452 0 0 0-.37-.375 1.62 1.62 0 0 0-.509-.23 2.52 2.52 0 0 0-.656-.079c-.27 0-.51.035-.72.106-.21.07-.387.167-.53.29-.143.124-.252.27-.326.44-.074.17-.111.353-.111.55 0 .199.04.374.123.526.082.153.19.29.322.414.133.124.284.236.455.336.17.1.344.196.522.287.177.091.35.183.521.274.17.09.322.188.455.29.133.104.24.217.322.34a.75.75 0 0 1 .123.425c0 .132-.03.249-.09.35a.82.82 0 0 1-.238.253c-.099.069-.21.121-.336.156a1.518 1.518 0 0 1-.857-.021 1.403 1.403 0 0 1-.73-.551 1.705 1.705 0 0 1-.221-.453l-.465.191c.068.193.155.364.262.514.106.15.235.277.384.38.15.105.323.184.518.24.195.054.418.081.668.081zM11.399 13l.816-1.727h2.223L15.227 13h.886l-2.437-5.297h-.219L10.961 13h.438zm2.879-2.063h-1.91l.968-2.05.942 2.05zM17.946 13V7.82h-.871V13h.87zm5.957.121v-5.3h-.383v3.788h-.039L20.087 7.82h-.489V13h.395V8.91h.031l3.676 4.211h.203zM27.747 13V8.156h1.875V7.82h-4.621v.336h1.875V13h.871zM7.574 20v-2.395c.05.01.114.021.192.032a5.594 5.594 0 0 0 .539.045c.099.004.194.006.285.006.21 0 .418-.028.62-.084a1.71 1.71 0 0 0 .546-.256 1.236 1.236 0 0 0 .533-1.047 1.296 1.296 0 0 0-.564-1.096 1.924 1.924 0 0 0-.62-.287 2.865 2.865 0 0 0-.761-.098h-1.64V20h.87zm.66-2.57c-.117 0-.231-.011-.343-.034a2.44 2.44 0 0 1-.317-.084v-2.109h.617c.162 0 .314.027.455.082a1.07 1.07 0 0 1 .62.594c.06.14.09.298.09.473 0 .148-.023.288-.069.42a.928.928 0 0 1-.56.574 1.33 1.33 0 0 1-.493.084zM12.442 20v-5.18h-.872V20h.872zm5.254 0v-.336h-2.73v-2.32h1.827v-.336h-1.828v-1.852h2.73v-.336h-3.6V20h3.6zm2.137 0v-2.434h.61l1.8 2.434h1.012l-1.887-2.512c.187-.047.36-.111.516-.193.156-.082.29-.18.4-.293.11-.113.197-.24.258-.38a1.233 1.233 0 0 0-.027-.994 1.18 1.18 0 0 0-.354-.429 1.727 1.727 0 0 0-.586-.28 3.007 3.007 0 0 0-.816-.099h-1.797V20h.87zm.504-2.695h-.504v-2.16h.765c.16 0 .306.026.44.078.134.052.25.124.348.216a.948.948 0 0 1 .226.334c.053.13.08.274.08.43 0 .17-.034.322-.101.457a1.01 1.01 0 0 1-.284.346 1.343 1.343 0 0 1-.43.22 1.796 1.796 0 0 1-.54.079zM25.075 20v-2.434h.61l1.8 2.434h1.012l-1.887-2.512c.188-.047.36-.111.516-.193.156-.082.29-.18.4-.293.111-.113.197-.24.258-.38a1.233 1.233 0 0 0-.027-.994 1.18 1.18 0 0 0-.354-.429 1.728 1.728 0 0 0-.586-.28 3.008 3.008 0 0 0-.816-.099h-1.797V20h.871zm.504-2.695h-.504v-2.16h.766c.159 0 .305.026.44.078.133.052.25.124.347.216a.948.948 0 0 1 .227.334c.053.13.08.274.08.43a1 1 0 0 1-.385.803 1.342 1.342 0 0 1-.43.22 1.796 1.796 0 0 1-.54.079zM33.05 20v-.336h-2.731v-2.32h1.828v-.336h-1.828v-1.852h2.73v-.336h-3.602V20h3.602zM2 1H0v20h2V1z"/></svg>