<svg xmlns="http://www.w3.org/2000/svg" width="56" height="12" fill="none"><g clip-path="url(#a)"><path fill="#000" d="M8.036 11a2.26 2.26 0 0 0 1.077-.256c.322-.17.598-.398.827-.681.23-.283.407-.602.531-.956a3.24 3.24 0 0 0 .187-1.087c0-.47-.089-.896-.267-1.282a2.862 2.862 0 0 0-.729-.978 3.1 3.1 0 0 0-1.047-.597c.312-.249.555-.55.729-.904a2.54 2.54 0 0 0 .26-1.132c0-.479-.119-.917-.356-1.315A2.695 2.695 0 0 0 8.296.86 2.498 2.498 0 0 0 7.184.512L6.981.505H.844c0 .205.036.377.11.516.073.14.153.27.241.392.083.108.158.221.224.34a.99.99 0 0 1 .113.422v7.163a.986.986 0 0 1-.113.421c-.066.12-.14.233-.224.34a2.862 2.862 0 0 0-.241.385 1.1 1.1 0 0 0-.11.517h7.192zM5.604 4.747 4.125 4.51V1.516h1.48c.292 0 .562.073.809.22.246.146.442.341.586.585.144.244.216.513.216.806 0 .298-.073.58-.22.846a1.61 1.61 0 0 1-.586.619 1.18 1.18 0 0 1-.806.154zm.447 5.112H4.125l.007-4.49c.254.049.537.123.85.224.312.1.626.225.941.377.315.151.603.328.864.53.262.203.474.432.638.686.163.253.245.532.245.835 0 .336-.073.644-.22.922-.146.279-.343.5-.59.667a1.42 1.42 0 0 1-.809.249zM17.627 11a1.1 1.1 0 0 1 .11-.517c.073-.139.156-.267.249-.384a2.29 2.29 0 0 0 .22-.345c.063-.122.1-.263.11-.424V5.25c-.523.088-.925.267-1.205.538a2.482 2.482 0 0 0-.623.978 9.31 9.31 0 0 0-.333 1.209 19.16 19.16 0 0 1-.227.886 4.017 4.017 0 0 1-.334.824 2.432 2.432 0 0 1-.549.68 2.428 2.428 0 0 1-.868.466c-.351.112-.786.168-1.303.168h-2.63c.562-.185 1.03-.441 1.403-.769.373-.327.688-.694.945-1.102.256-.408.49-.821.699-1.241.21-.42.432-.816.666-1.187.235-.37.518-.688.85-.952h-.03a2.022 2.022 0 0 1-1.317-.267 2.634 2.634 0 0 1-.953-.996 2.746 2.746 0 0 1-.351-1.156l-.008-.203c0-.483.119-.923.356-1.318.237-.396.554-.712.952-.949a2.506 2.506 0 0 1 1.117-.348l.205-.007h6.826c0 .21-.037.384-.11.524a2.433 2.433 0 0 1-.249.384c-.083.108-.156.22-.22.337a.994.994 0 0 0-.11.417V9.33c.01.166.048.31.114.432s.14.239.223.351c.093.117.175.246.246.385.07.139.106.306.106.502h-3.977zm-.532-6.255 1.552-.33V1.442c-.937.069-1.645.231-2.124.487-.478.257-.778.555-.9.894-.123.34-.12.667.007.981a1.6 1.6 0 0 0 .597.748c.27.183.56.247.868.194zm10.482 6.438c.693 0 1.345-.14 1.956-.421a5.037 5.037 0 0 0 1.607-1.169 5.617 5.617 0 0 0 1.483-3.845l-.008-.32a5.537 5.537 0 0 0-.387-1.793 5.537 5.537 0 0 0-1.088-1.729A5.123 5.123 0 0 0 29.533.74a4.59 4.59 0 0 0-1.956-.425c-.698 0-1.352.142-1.963.425a5.123 5.123 0 0 0-1.607 1.168 5.484 5.484 0 0 0-1.084 1.729 5.665 5.665 0 0 0-.392 2.113c0 .752.13 1.456.392 2.113a5.529 5.529 0 0 0 1.084 1.732c.461.498.997.888 1.607 1.168a4.64 4.64 0 0 0 1.963.422zm.95-1.157c-.393.061-.783-.033-1.17-.283-.434-.28-.83-.713-1.186-1.296-.357-.584-.64-1.268-.85-2.054-.2-.791-.287-1.534-.26-2.227.027-.693.16-1.277.4-1.75.239-.474.578-.777 1.018-.909.439-.112.88-.028 1.325.253.445.28.85.712 1.216 1.293.366.58.654 1.267.864 2.058.2.79.282 1.533.246 2.226-.037.694-.18 1.277-.429 1.75-.249.475-.59.777-1.025.91l-.148.03zm13.852.98h.279v-8.83c.014-.161.055-.304.12-.429a2.72 2.72 0 0 1 .224-.355 2.99 2.99 0 0 0 .242-.38c.073-.137.11-.303.11-.499h-2.395c0 .21.037.385.113.524.076.139.16.267.253.384.078.108.15.22.216.337a.96.96 0 0 1 .113.418V9.19a8.355 8.355 0 0 1-1.97-1.973 15.19 15.19 0 0 1-1.42-2.443 30.224 30.224 0 0 1-.842-1.995l-.177-.48c-.205-.591-.42-1.014-.644-1.268-.225-.254-.551-.407-.978-.461-.427-.054-1.049-.073-1.864-.059h-.696c0 .205.037.377.11.517.073.139.156.267.249.384.083.108.157.221.223.34a.99.99 0 0 1 .114.422v7.163c-.01.161-.048.303-.114.425s-.14.237-.223.344a2.468 2.468 0 0 0-.25.385 1.11 1.11 0 0 0-.109.516h2.395c0-.21-.037-.385-.11-.524a2.472 2.472 0 0 0-.249-.384 2.384 2.384 0 0 1-.22-.341 1.104 1.104 0 0 1-.117-.421v-6.05c.176.479.45 1.067.82 1.765.372.698.812 1.419 1.322 2.16a16.13 16.13 0 0 0 1.656 2.04c.593.618 1.197 1.088 1.813 1.41.341.171.67.274.985.308.315.034.655.047 1.021.037zm5.23-.006c0-.22-.044-.41-.132-.572a3.165 3.165 0 0 0-.308-.461 3.611 3.611 0 0 1-.183-.264l2.03-2.746 1.647 2.512a2.502 2.502 0 0 0-.304.315c-.1.122-.184.278-.253.468-.068.19-.102.44-.102.748h5.149c0-.279-.043-.5-.128-.663a1.201 1.201 0 0 0-.326-.4 3.179 3.179 0 0 0-.425-.278 2.244 2.244 0 0 1-.55-.403l-3.039-3.845 2.38-3.245a2.15 2.15 0 0 1 .381-.336c.147-.103.298-.203.454-.3.166-.098.321-.2.465-.305.145-.105.262-.216.352-.333a.62.62 0 0 0 .136-.388h-3.377c0 .22.044.409.132.568.088.158.188.308.3.45.064.088.127.178.19.271l-2.087 2.85-2.021-2.667a.24.24 0 0 0 .036-.03 2.54 2.54 0 0 0 .608-.523c.176-.207.271-.514.286-.92h-4.98c0 .274.046.493.139.656.092.164.21.295.355.392.144.098.297.186.458.264.22.098.41.222.57.373L48.385 6.1l-2.373 3.23a2.305 2.305 0 0 1-.384.344c-.15.107-.302.212-.458.315-.166.102-.32.206-.462.311a1.813 1.813 0 0 0-.347.33.587.587 0 0 0-.136.37h3.384z"/></g><defs><clipPath id="a"><path fill="#fff" d="M0 0h56v12H0z"/></clipPath></defs></svg>