<svg xmlns="http://www.w3.org/2000/svg" width="172" height="48" fill="none"><path fill="#000" fill-rule="evenodd" d="M35.984 36.857a5.571 5.571 0 0 1 0 11.143H16.527a5.571 5.571 0 1 1 0-11.143h19.457zM83.598 8c.619 0 1.15.225 1.596.674.445.45.668.987.668 1.612v27.428l-.009.205a2.203 2.203 0 0 1-.66 1.407c-.444.45-.976.674-1.595.674a2.114 2.114 0 0 1-1.584-.686 2.072 2.072 0 0 1-.453-.594l-9.279-18.743v17.737l-.008.205a2.203 2.203 0 0 1-.66 1.407c-.445.45-.977.674-1.595.674a2.17 2.17 0 0 1-1.596-.674 2.21 2.21 0 0 1-.667-1.612V10.286l.008-.205a2.203 2.203 0 0 1 .66-1.407c.444-.45.976-.674 1.595-.674.618 0 1.154.221 1.607.663.18.198.324.404.43.617l9.28 18.743V10.286l.007-.205a2.203 2.203 0 0 1 .66-1.407c.445-.45.977-.674 1.595-.674zm21.474 0c.618 0 1.15.225 1.595.674.446.45.668.987.668 1.612v20.571l-.005.343c-.077 2.382-.958 4.424-2.643 6.126-1.765 1.783-3.9 2.674-6.405 2.674-2.504 0-4.64-.891-6.405-2.674-1.765-1.783-2.648-3.94-2.648-6.469V10.286l.008-.205a2.202 2.202 0 0 1 .66-1.407c.445-.45.977-.674 1.596-.674.618 0 1.15.225 1.595.674.445.45.668.987.668 1.612v20.571l.006.25c.055 1.158.494 2.152 1.318 2.984.882.892 1.95 1.338 3.202 1.338s2.32-.446 3.203-1.338c.882-.891 1.324-1.97 1.324-3.234V10.286l.008-.205a2.206 2.206 0 0 1 .659-1.407c.445-.45.977-.674 1.596-.674zm21.473 0c.619 0 1.151.225 1.596.674.445.45.668.987.668 1.612v27.428l-.009.205a2.2 2.2 0 0 1-.659 1.407c-.445.45-.977.674-1.596.674a2.115 2.115 0 0 1-1.584-.686 2.083 2.083 0 0 1-.453-.594l-9.279-18.743v17.737l-.008.205a2.206 2.206 0 0 1-.659 1.407c-.446.45-.977.674-1.596.674a2.17 2.17 0 0 1-1.596-.674 2.21 2.21 0 0 1-.667-1.612V10.286l.008-.205a2.206 2.206 0 0 1 .659-1.407c.446-.45.977-.674 1.596-.674.619 0 1.154.221 1.607.663a2.7 2.7 0 0 1 .43.617l9.279 18.743V10.286l.008-.205a2.202 2.202 0 0 1 .66-1.407c.445-.45.977-.674 1.595-.674zm14.684 0 .339.006c2.359.077 4.381.966 6.066 2.668 1.765 1.783 2.648 3.94 2.648 6.469 0 2.53-.883 4.686-2.648 6.468a9.539 9.539 0 0 1-.407.389c.136.122.271.251.407.389 1.765 1.782 2.648 3.939 2.648 6.468 0 2.53-.883 4.686-2.648 6.469-1.765 1.783-3.9 2.674-6.405 2.674h-6.789l-.203-.008a2.164 2.164 0 0 1-1.393-.666 2.21 2.21 0 0 1-.668-1.612V10.286l.009-.205a2.2 2.2 0 0 1 .659-1.407c.445-.45.977-.674 1.596-.674h6.789zm28.263 0c.619 0 1.151.225 1.596.674.445.45.668.987.668 1.612a2.2 2.2 0 0 1-.453 1.371l.023.046L165.238 24l6.088 12.297-.023.046.106.151c.231.36.347.767.347 1.22a2.21 2.21 0 0 1-.668 1.612c-.445.45-.977.674-1.596.674a2.115 2.115 0 0 1-1.584-.686 2.06 2.06 0 0 1-.452-.594L161.3 26.286h-3.124v11.428l-.008.205a2.206 2.206 0 0 1-.659 1.407c-.445.45-.977.674-1.596.674a2.17 2.17 0 0 1-1.596-.674 2.21 2.21 0 0 1-.667-1.612V10.286l.008-.205a2.206 2.206 0 0 1 .659-1.407c.446-.45.977-.674 1.596-.674.619 0 1.151.225 1.596.674.445.45.667.987.667 1.612v11.428h3.124l6.156-12.434.087-.159a2.52 2.52 0 0 1 .365-.458A2.15 2.15 0 0 1 169.492 8zm-28.263 18.286h-4.526v9.143h4.526c1.253 0 2.32-.446 3.203-1.338.882-.891 1.324-1.97 1.324-3.234 0-1.265-.442-2.343-1.324-3.234-.883-.892-1.95-1.337-3.203-1.337zM46.625 0c2.761 0 5.013 2.195 5.126 4.947l.003.154h.175v.15c0 14.084-11.494 25.5-25.673 25.5C12.218 30.752.812 19.563.586 5.674l-.004-.421v-.15H.77C.956 2.503 3.108.455 5.735.455c2.75 0 4.98 2.244 4.98 5.013 0 .269-.022.533-.062.79.595 7.959 7.285 14.232 15.45 14.232 8.239 0 14.975-6.385 15.468-14.444a5.165 5.165 0 0 1-.076-.882c0-2.852 2.297-5.165 5.13-5.165zm94.604 12.571h-4.526v9.143h4.526c1.253 0 2.32-.445 3.203-1.337.882-.891 1.324-1.97 1.324-3.234 0-1.265-.442-2.343-1.324-3.234-.883-.892-1.95-1.338-3.203-1.338z" clip-rule="evenodd"/></svg>