<svg xmlns="http://www.w3.org/2000/svg" width="167" height="53" fill="none"><g clip-path="url(#a)"><path fill="#000" fill-rule="evenodd" d="M43 0c5.523 0 10 4.477 10 10v21c0 5.523-4.477 10-10 10H31v2c0 5.523-4.477 10-10 10H10C4.477 53 0 48.523 0 43V32c0-5.523 4.477-10 10-10h1.81v9.19c0 5.43 4.326 9.848 9.72 9.997l.28.004L31 41.19V41h-9l8.999-.001V31.93L31 32v9h.381v-9.382c0-5.43-4.326-9.848-9.72-9.996l-.28-.004H12V10c0-5.523 4.477-10 10-10h21zm33.888 17.152c5.536 0 8.256 2.784 9.312 6.432.032.096-.032.224-.16.224h-3.776c-.288 0-.352-.128-.384-.224-.96-1.952-2.88-2.912-4.992-2.912-3.84 0-6.144 3.2-6.144 8.064 0 5.024 2.176 8.064 6.144 8.064 3.168 0 6.016-1.28 6.24-5.856v-.32c0-.096-.032-.128-.128-.128h-5.984c-.096 0-.128-.064-.128-.16v-3.168c0-.096.032-.16.128-.16h9.472c.096 0 .16.064.16.16v12.704c0 .096-.064.128-.16.128h-2.912c-.096 0-.128-.032-.16-.128l-.32-1.664c-.032-.128-.16-.192-.32-.064-1.504 1.216-3.296 2.176-5.888 2.176-6.432 0-10.144-4.8-10.144-11.584 0-6.752 3.712-11.584 10.144-11.584zm23.232.32c3.616 0 6.752 3.04 6.752 6.944 0 2.688-1.44 4.928-3.488 6.08-.032.032-.032.064 0 .128l4.064 9.152c.064.128-.032.224-.16.224h-3.68c-.064 0-.128-.064-.16-.096l-3.712-8.384a.264.264 0 0 0-.256-.16h-4.928c-.096 0-.128.032-.128.128v8.352c0 .096-.064.16-.16.16h-3.52c-.096 0-.16-.064-.16-.16V17.632c0-.096.064-.16.16-.16h9.376zm25.824 0c.096 0 .16.064.16.16v3.2c0 .096-.064.16-.16.16h-11.808c-.096 0-.16.064-.16.16v5.504c0 .096.064.16.16.16h10.208c.096 0 .16.064.16.16v3.2c0 .096-.064.16-.16.16h-10.208c-.096 0-.16.064-.16.16v5.824c0 .096.064.16.16.16h11.808c.096 0 .16.064.16.16v3.2c0 .096-.064.16-.16.16h-15.648c-.096 0-.16-.064-.16-.16V17.632c0-.096.064-.16.16-.16h15.648zm19.104 0c.096 0 .16.064.16.16v3.2c0 .096-.064.16-.16.16H133.24c-.096 0-.16.064-.16.16v5.504c0 .096.064.16.16.16h10.208c.096 0 .16.064.16.16v3.2c0 .096-.064.16-.16.16H133.24c-.096 0-.16.064-.16.16v5.824c0 .096.064.16.16.16h11.808c.096 0 .16.064.16.16v3.2c0 .096-.064.16-.16.16H129.4c-.096 0-.16-.064-.16-.16V17.632c0-.096.064-.16.16-.16h15.648zm8.224 0c.096 0 .16.096.192.16l8.768 16.832c.096.224.32.16.32 0V17.632c0-.096.064-.16.16-.16h3.52c.096 0 .16.064.16.16V39.84c0 .096-.064.16-.16.16h-4.768c-.096 0-.192-.096-.224-.16l-8.736-16.832c-.096-.224-.32-.16-.32 0V39.84c0 .096-.064.16-.16.16h-3.552c-.064 0-.128-.064-.128-.16V17.632c0-.096.064-.16.16-.16h4.768zM99.8 20.992h-5.248c-.096 0-.128.064-.128.128v6.56c0 .096.064.16.16.16h5.344c1.632 0 3.136-1.568 3.136-3.424 0-1.888-1.568-3.424-3.264-3.424z" clip-rule="evenodd"/></g><defs><clipPath id="a"><path fill="#fff" d="M0 0h167v53H0z"/></clipPath></defs></svg>