<svg xmlns="http://www.w3.org/2000/svg" width="613" height="165" fill="none"><path fill="#fff" d="M150.688 62.188h-44.063c-.313-3.646-1.146-6.954-2.5-9.922-1.302-2.97-3.125-5.521-5.469-7.657-2.291-2.187-5.078-3.854-8.36-5-3.28-1.198-7.004-1.797-11.171-1.797-7.292 0-13.463 1.771-18.516 5.313-5 3.542-8.802 8.62-11.406 15.234-2.552 6.615-3.828 14.558-3.828 23.828 0 9.792 1.302 17.995 3.906 24.61 2.657 6.562 6.485 11.51 11.485 14.844 5 3.281 11.015 4.922 18.047 4.922 4.01 0 7.604-.495 10.78-1.485 3.178-1.042 5.938-2.526 8.282-4.453a23.059 23.059 0 0 0 5.703-6.953c1.511-2.761 2.526-5.859 3.047-9.297l44.063.313c-.521 6.77-2.422 13.671-5.704 20.703-3.281 6.979-7.942 13.437-13.984 19.375-5.99 5.885-13.411 10.625-22.266 14.218-8.854 3.594-19.14 5.391-30.859 5.391-14.688 0-27.865-3.151-39.531-9.453-11.615-6.302-20.808-15.573-27.578-27.813C4.046 114.87.687 99.896.687 82.188c0-17.813 3.438-32.813 10.313-45 6.875-12.24 16.146-21.485 27.813-27.735C50.478 3.151 63.5 0 77.874 0c10.104 0 19.401 1.38 27.891 4.14 8.489 2.761 15.937 6.798 22.343 12.11 6.407 5.26 11.563 11.745 15.469 19.453 3.906 7.708 6.276 16.537 7.11 26.484zm102.294-60h43.438v102.5c0 12.187-2.917 22.734-8.75 31.64-5.782 8.854-13.855 15.703-24.219 20.547-10.365 4.792-22.396 7.187-36.094 7.187-13.802 0-25.885-2.395-36.25-7.187-10.365-4.844-18.437-11.693-24.219-20.547-5.729-8.906-8.593-19.453-8.593-31.64V2.188h43.437v98.75c0 4.947 1.094 9.375 3.281 13.281 2.188 3.854 5.209 6.875 9.063 9.062 3.906 2.188 8.333 3.282 13.281 3.282 5 0 9.427-1.094 13.281-3.282 3.854-2.187 6.875-5.208 9.063-9.062 2.187-3.906 3.281-8.334 3.281-13.281V2.188zm51.982 160v-160h69.375c12.188 0 22.422 1.64 30.703 4.921 8.334 3.282 14.61 7.917 18.828 13.907 4.271 5.99 6.407 13.047 6.407 21.172 0 5.885-1.303 11.25-3.907 16.093-2.552 4.844-6.146 8.907-10.781 12.188-4.635 3.229-10.052 5.469-16.25 6.719v1.562c6.875.26 13.125 2.005 18.75 5.234 5.625 3.178 10.104 7.579 13.438 13.204 3.333 5.572 5 12.135 5 19.687 0 8.75-2.292 16.536-6.875 23.359-4.532 6.823-10.99 12.188-19.375 16.094-8.386 3.906-18.386 5.86-30 5.86h-75.313zm43.438-34.688h20.312c7.292 0 12.76-1.354 16.406-4.062 3.646-2.761 5.469-6.823 5.469-12.188 0-3.75-.859-6.927-2.578-9.531-1.719-2.604-4.167-4.584-7.344-5.938-3.125-1.354-6.901-2.031-11.328-2.031h-20.937v33.75zm0-60.625h17.812c3.802 0 7.162-.599 10.078-1.797 2.917-1.198 5.182-2.917 6.797-5.156 1.667-2.292 2.5-5.078 2.5-8.36 0-4.947-1.771-8.723-5.312-11.328-3.542-2.656-8.021-3.984-13.438-3.984h-18.437v30.625zm246.415 15.313c0 17.812-3.463 32.838-10.39 45.078-6.928 12.187-16.276 21.432-28.047 27.734-11.771 6.25-24.896 9.375-39.375 9.375-14.584 0-27.761-3.151-39.532-9.453-11.718-6.354-21.041-15.625-27.968-27.813-6.875-12.239-10.313-27.213-10.313-44.921 0-17.813 3.438-32.813 10.313-45 6.927-12.24 16.25-21.485 27.968-27.735C489.244 3.151 502.421 0 517.005 0c14.479 0 27.604 3.151 39.375 9.453 11.771 6.25 21.119 15.495 28.047 27.735 6.927 12.187 10.39 27.187 10.39 45zm-44.687 0c0-9.584-1.276-17.657-3.828-24.22-2.5-6.614-6.224-11.614-11.172-15-4.896-3.437-10.938-5.156-18.125-5.156-7.188 0-13.256 1.72-18.203 5.157-4.896 3.385-8.62 8.385-11.172 15-2.5 6.562-3.75 14.635-3.75 24.218 0 9.584 1.25 17.683 3.75 24.297 2.552 6.563 6.276 11.563 11.172 15 4.947 3.386 11.015 5.079 18.203 5.079 7.187 0 13.229-1.693 18.125-5.079 4.948-3.437 8.672-8.437 11.172-15 2.552-6.614 3.828-14.713 3.828-24.296z"/><mask id="a" width="26" height="26" x="587" y="0" maskUnits="userSpaceOnUse" style="mask-type:luminance"><path fill="#fff" d="M613 0h-26v26h26V0z"/></mask><g fill="#fff" mask="url(#a)"><path d="M600 2.6c5.746 0 10.4 4.654 10.4 10.4s-4.654 10.4-10.4 10.4-10.4-4.654-10.4-10.4S594.254 2.6 600 2.6zm0-2.6c-7.176 0-13 5.824-13 13s5.824 13 13 13 13-5.824 13-13-5.824-13-13-13z"/><path d="M600.003 7.801c.728 0 1.404.156 2.028.416.624.26 1.17.65 1.664 1.118.468.468.858 1.04 1.118 1.664l2.392-1.014a7.664 7.664 0 0 0-1.664-2.47 7.663 7.663 0 0 0-2.47-1.664 7.307 7.307 0 0 0-3.068-.65 7.493 7.493 0 0 0-3.042.624 7.663 7.663 0 0 0-2.47 1.664 7.664 7.664 0 0 0-1.664 2.47 7.493 7.493 0 0 0-.624 3.042c0 1.066.208 2.106.624 3.042.39.936.962 1.768 1.664 2.47a7.664 7.664 0 0 0 2.47 1.664 7.493 7.493 0 0 0 3.042.624 7.493 7.493 0 0 0 3.042-.624 7.664 7.664 0 0 0 2.47-1.664 7.663 7.663 0 0 0 1.664-2.47l-2.392-1.014c-.26.624-.65 1.17-1.118 1.664a5.092 5.092 0 0 1-3.666 1.508 5.232 5.232 0 0 1-2.028-.416c-.624-.26-1.17-.65-1.664-1.118a5.209 5.209 0 0 1-1.118-1.664 5.234 5.234 0 0 1-.416-2.028c0-.728.156-1.404.416-2.028.26-.624.65-1.17 1.118-1.664a4.816 4.816 0 0 1 1.664-1.118c.624-.208 1.3-.364 2.028-.364z"/></g></svg>