<svg xmlns="http://www.w3.org/2000/svg" width="92" height="72" fill="none"><path fill="#000" d="M53.334 40.423c-1.1 0-2-.9-2-2V2.422c0-1.1.9-2 2-2h36c1.1 0 2 .9 2 2v36c0 1.1-.46 2.774-1.021 3.72L73.836 69.86c-.562.945-1.921 1.678-3.02 1.627l-9.645-.441c-1.099-.051-1.793-.968-1.543-2.04l6.223-26.638c.25-1.071-.445-1.947-1.545-1.947l-10.972.002zm-50.668 0c-1.1 0-2-.9-2-2V2.422c0-1.1.9-2 2-2h36c1.1 0 2 .9 2 2v36c0 1.1-.46 2.774-1.022 3.72L23.169 69.86c-.562.946-1.921 1.679-3.02 1.628l-9.645-.441c-1.099-.051-1.793-.968-1.543-2.04l6.223-26.64c.25-1.07-.445-1.946-1.545-1.946l-10.973.002z"/></svg>