<svg xmlns="http://www.w3.org/2000/svg" width="747" height="747" fill="none"><path fill="#000" d="M373.666 0h46.667v46.667h-46.667V0zm46.667 0H467v46.667h-46.667V0z"/><path fill="#000" d="M327 0h46.667v46.667H327V0zm-46.667 0H327v46.667h-46.667V0zm-46.667 46.666h46.667v46.667h-46.667V46.666z"/><path fill="#000" d="M187 46.666h46.667v46.667H187V46.666zm326.666 0h46.667v46.667h-46.667V46.666z"/><path fill="#000" d="M467 46.666h46.667v46.667H467V46.666zM373.666 700h46.667v46.667h-46.667V700zm46.667 0H467v46.667h-46.667V700z"/><path fill="#000" d="M327 700h46.667v46.667H327V700zm-46.667 0H327v46.667h-46.667V700zm-46.667-46.666h46.667v46.667h-46.667v-46.667z"/><path fill="#000" d="M187 653.334h46.667v46.667H187v-46.667zm326.666 0h46.667v46.667h-46.667v-46.667z"/><path fill="#000" d="M467 653.334h46.667v46.667H467v-46.667zm280-280v46.667h-46.667v-46.667H747z"/><path fill="#000" d="M747 420v46.667h-46.667V420H747zm0-93.334v46.667h-46.667v-46.667H747z"/><path fill="#000" d="M747 280v46.667h-46.667V280H747zm-46.667-46.666v46.667h-46.667v-46.667h46.667zm0-46.668v46.667h-46.667v-46.667h46.667zm0 326.668v46.667h-46.667v-46.667h46.667zm0-46.668v46.667h-46.667v-46.667h46.667zM47 373.334v46.667H.333v-46.667H47z"/><path fill="#000" d="M47 420v46.667H.333V420H47zm0-93.334v46.667H.333v-46.667H47z"/><path fill="#000" d="M47 280v46.667H.333V280H47zm46.667-46.666v46.667H47v-46.667h46.667zm0-46.668v46.667H47v-46.667h46.667zm0 326.668v46.667H47v-46.667h46.667zm0-46.668v46.667H47v-46.667h46.667zm46.666-373.332H187v46.667h-46.667V93.334zm420 0H607v46.667h-46.667V93.334z"/><path fill="#000" d="M93.666 140h46.667v46.667H93.666V140zm0 420h46.667v46.667H93.666V560zm46.667 46.666H187v46.667h-46.667v-46.667zm420 0H607v46.667h-46.667v-46.667zM607 560h46.667v46.667H607V560zm0-420h46.667v46.667H607V140zm-420 93.334h46.667v46.667H187v-46.667z"/><path fill="#000" d="M187 280h46.667v46.667H187V280z"/><path fill="#000" d="M233.666 233.334h46.667v46.667h-46.667v-46.667z"/><path fill="#000" d="M233.666 280h46.667v46.667h-46.667V280zM467 233.334h46.667v46.667H467v-46.667z"/><path fill="#000" d="M467 280h46.667v46.667H467V280z"/><path fill="#000" d="M513.666 233.334h46.667v46.667h-46.667v-46.667z"/><path fill="#000" d="M513.666 280h46.667v46.667h-46.667V280zM187 420h46.667v46.667H187V420zm326.666 0h46.667v46.667h-46.667V420z"/><path fill="#000" d="M233.666 466.666h46.667v46.667h-46.667v-46.667zm233.334 0h46.667v46.667H467v-46.667zm-186.667 46.668H327v46.667h-46.667v-46.667zm46.667 0h46.667v46.667H327v-46.667z"/><path fill="#000" d="M373.666 513.334h46.667v46.667h-46.667v-46.667zm46.667 0H467v46.667h-46.667v-46.667z"/></svg>