<svg xmlns="http://www.w3.org/2000/svg" width="560" height="560" fill="none"><path fill="#000" d="M326.668 233.333c0-25.77 20.896-46.666 46.666-46.666 25.776 0 46.667 20.896 46.667 46.666 0 25.771-20.891 46.667-46.667 46.667-25.77 0-46.666-20.896-46.666-46.667z"/><path fill="#000" fill-opacity=".2" d="M326.668 233.333c0-25.77 20.896-46.666 46.666-46.666 25.776 0 46.667 20.896 46.667 46.666 0 25.771-20.891 46.667-46.667 46.667-25.77 0-46.666-20.896-46.666-46.667z"/><path fill="#000" d="M186.667 186.667c-25.771 0-46.667 20.896-46.667 46.666C140 259.104 160.896 280 186.667 280c25.77 0 46.666-20.896 46.666-46.667 0-25.77-20.896-46.666-46.666-46.666z"/><path fill="#000" fill-opacity=".2" d="M186.667 186.667c-25.771 0-46.667 20.896-46.667 46.666C140 259.104 160.896 280 186.667 280c25.77 0 46.666-20.896 46.666-46.667 0-25.77-20.896-46.666-46.666-46.666z"/><path fill="#000" d="M280.001 443.333c-60.484 0-113.26-32.89-141.467-81.65-6.453-11.151-2.64-25.427 8.516-31.88 11.151-6.453 25.427-2.641 31.88 8.515 20.208 34.932 57.921 58.35 101.073 58.35 43.152 0 80.864-23.416 101.074-58.35 6.453-11.156 20.729-14.969 31.88-8.515 11.151 6.453 14.969 20.729 8.515 31.88-28.208 48.76-80.984 81.65-141.466 81.65h-.005z"/><path fill="#000" fill-opacity=".2" d="M280.001 443.333c-60.484 0-113.26-32.89-141.467-81.65-6.453-11.151-2.64-25.427 8.516-31.88 11.151-6.453 25.427-2.641 31.88 8.515 20.208 34.932 57.921 58.35 101.073 58.35 43.152 0 80.864-23.416 101.074-58.35 6.453-11.156 20.729-14.969 31.88-8.515 11.151 6.453 14.969 20.729 8.515 31.88-28.208 48.76-80.984 81.65-141.466 81.65h-.005z"/><path fill="#000" fill-rule="evenodd" d="M280 560c154.64 0 280-125.36 280-280S434.64 0 280 0 0 125.36 0 280s125.36 280 280 280zm0-46.667c128.864 0 233.333-104.469 233.333-233.333S408.864 46.667 280 46.667 46.667 151.136 46.667 280 151.136 513.333 280 513.333z" clip-rule="evenodd"/><path fill="#000" fill-opacity=".2" fill-rule="evenodd" d="M280 560c154.64 0 280-125.36 280-280S434.64 0 280 0 0 125.36 0 280s125.36 280 280 280zm0-46.667c128.864 0 233.333-104.469 233.333-233.333S408.864 46.667 280 46.667 46.667 151.136 46.667 280 151.136 513.333 280 513.333z" clip-rule="evenodd"/></svg>